<svg t="1782582782591" class="icon" viewBox="0 0 1024 1024" version="1.1" xmlns="http://www.w3.org/2000/svg" p-id="19748" width="200" height="200"><path d="M512 68.253538c245.051077 0 443.707077 198.656 443.707077 443.746462 0 245.051077-198.656 443.707077-443.707077 443.707077C266.909538 955.707077 68.253538 757.090462 68.253538 512 68.253538 266.909538 266.909538 68.253538 512 68.253538z m0 68.253539a375.453538 375.453538 0 1 0 0 750.946461 375.453538 375.453538 0 0 0 0-750.946461z" fill="#999999" p-id="19749"></path><path d="M557.292308 720.068923a34.146462 34.146462 0 0 1-68.017231 4.292923l-0.275692-4.292923V429.922462a34.146462 34.146462 0 0 1 68.01723-4.253539l0.275693 4.253539v290.146461z" fill="#999999" p-id="19750"></path><path d="M523.264 309.799385m-39.384615 0a39.384615 39.384615 0 1 0 78.76923 0 39.384615 39.384615 0 1 0-78.76923 0Z" fill="#999999" p-id="19751"></path></svg>