<svg t="1782541976969" class="icon" viewBox="0 0 1024 1024" version="1.1" xmlns="http://www.w3.org/2000/svg" p-id="12651" width="200" height="200"><path d="M807.552 218.624A413.696 413.696 0 0 0 515.2 96H512A416 416 0 0 0 96 512v224a96 96 0 0 0 96 96h64a96 96 0 0 0 96-96v-160a96 96 0 0 0-96-96H161.44A352 352 0 0 1 512 160h2.688a350.848 350.848 0 0 1 348 320H768a96 96 0 0 0-96 96v160a96 96 0 0 0 96 96h64a96 96 0 0 0 96-96v-224a413.696 413.696 0 0 0-120.448-293.376zM256 544a32 32 0 0 1 32 32v160a32 32 0 0 1-32 32H192a32 32 0 0 1-32-32v-192h96z m608 192a32 32 0 0 1-32 32h-64a32 32 0 0 1-32-32v-160a32 32 0 0 1 32-32h96v192z" p-id="12652"></path></svg>