<svg t="1782218068808" class="icon" viewBox="0 0 1024 1024" version="1.1" xmlns="http://www.w3.org/2000/svg" p-id="3554" width="200" height="200"><path d="M100 328c-19.9 0-36-16.1-36-36V100c0-19.9 16.1-36 36-36h191.5c19.9 0 36 16.1 36 36s-16.1 36-36 36H136v156c0 19.9-16.1 36-36 36zM924.5 328c-19.9 0-36-16.1-36-36V136H733c-19.9 0-36-16.1-36-36s16.1-36 36-36h191.5c19.9 0 36 16.1 36 36v192c0 19.9-16.1 36-36 36z" fill="#333333" p-id="3555"></path><path d="M924.5 328c-19.9 0-36-16.1-36-36V136H733c-19.9 0-36-16.1-36-36s16.1-36 36-36h191.5c19.9 0 36 16.1 36 36v192c0 19.9-16.1 36-36 36zM924.5 960H733c-19.9 0-36-16.1-36-36s16.1-36 36-36h155.5V732c0-19.9 16.1-36 36-36s36 16.1 36 36v192c0 19.9-16.1 36-36 36zM291.5 960H100c-19.9 0-36-16.1-36-36V732c0-19.9 16.1-36 36-36s36 16.1 36 36v156h155.5c19.9 0 36 16.1 36 36s-16.1 36-36 36z" fill="#333333" p-id="3556"></path><path d="M793 829H232c-19.9 0-36-16.1-36-36V232c0-19.9 16.1-36 36-36h561c19.9 0 36 16.1 36 36v561c0 19.9-16.1 36-36 36z m-525-72h489V268H268v489z" fill="#333333" p-id="3557"></path></svg>