<svg t="1782291876969" class="icon" viewBox="0 0 1024 1024" version="1.1" xmlns="http://www.w3.org/2000/svg" p-id="10285" width="200" height="200"><path d="M128 981.333333c-46.933333 0-85.333333-38.4-85.333333-85.333333V298.666667c0-46.933333 38.4-85.333333 85.333333-85.333334h256L337.066667 98.133333c-4.266667-12.8-4.266667-25.6 0-38.4 4.266667-4.266667 12.8-12.8 21.333333-12.8h17.066667c12.8 0 25.6 8.533333 29.866666 21.333334L469.333333 213.333333h85.333334l64-145.066666c8.533333-17.066667 21.333333-25.6 38.4-25.6 12.8 0 25.6 8.533333 29.866666 17.066666 8.533333 12.8 8.533333 25.6 4.266667 38.4L640 213.333333h256c46.933333 0 85.333333 38.4 85.333333 85.333334v597.333333c0 46.933333-38.4 85.333333-85.333333 85.333333H128zM128 320v554.666667c0 12.8 8.533333 21.333333 21.333333 21.333333h725.333334c12.8 0 21.333333-8.533333 21.333333-21.333333v-554.666667c0-12.8-8.533333-21.333333-21.333333-21.333333h-725.333334c-12.8 0-21.333333 8.533333-21.333333 21.333333z m285.866667 426.666667c-4.266667-4.266667-8.533333-8.533333-8.533334-12.8v-285.866667c0-4.266667 4.266667-12.8 8.533334-12.8 4.266667-4.266667 12.8-4.266667 17.066666 0l221.866667 145.066667c4.266667 4.266667 8.533333 8.533333 8.533333 12.8 0 4.266667-4.266667 8.533333-8.533333 12.8l-221.866667 145.066666c-4.266667 0-4.266667 4.266667-8.533333 4.266667-4.266667-8.533333-4.266667-8.533333-8.533333-8.533333z" p-id="10286"></path></svg>