<svg t="1782066727799" class="icon" viewBox="0 0 1024 1024" version="1.1" xmlns="http://www.w3.org/2000/svg" p-id="26006" width="200" height="200"><path d="M865.834667 97.834667a42.666667 42.666667 0 1 1 60.330666 60.330666L700.330667 384H853.333333a42.666667 42.666667 0 1 1 0 85.333333h-256a42.666667 42.666667 0 0 1-42.666666-42.666666V170.666667a42.666667 42.666667 0 1 1 85.333333 0v153.002666l225.834667-225.834666zM128 597.333333a42.666667 42.666667 0 0 1 42.666667-42.666666h256a42.666667 42.666667 0 0 1 42.666666 42.666666v256a42.666667 42.666667 0 1 1-85.333333 0v-153.002666l-225.834667 225.834666a42.666667 42.666667 0 0 1-60.330666-60.330666L323.669333 640H170.666667a42.666667 42.666667 0 0 1-42.666667-42.666667z" fill="#25282B" p-id="26007"></path></svg>