<svg t="1781969070983" class="icon" viewBox="0 0 1024 1024" version="1.1" xmlns="http://www.w3.org/2000/svg" p-id="14654" width="200" height="200"><path d="M736 391.978667c0-68.181333-0.085333-115.797333-4.608-148.693334-4.778667-34.304-12.672-38.698667-15.36-39.808-2.304-1.024-10.453333-3.882667-37.504 16.853334-25.941333 19.925333-58.922667 53.461333-106.197333 101.674666-25.130667 25.6-47.658667 44.288-75.093334 55.637334-27.306667 11.264-56.405333 13.994667-91.904 13.994666-26.538667 0-48.298667-1.450667-68.906666 2.048-18.858667 3.157333-31.104 9.685333-39.253334 22.186667-3.2 4.864-5.973333 12.202667-7.552 27.733333-1.578667 16.085333-1.621333 37.162667-1.621333 68.394667s0 52.309333 1.621333 68.352c1.536 15.573333 4.352 22.912 7.552 27.818667 8.149333 12.458667 20.394667 18.986667 39.253334 22.186666 20.608 3.413333 42.368 2.005333 68.906666 2.005334 35.498667 0 64.597333 2.730667 91.904 13.994666 27.434667 11.349333 49.962667 29.994667 75.093334 55.637334 47.274667 48.213333 80.256 81.749333 106.24 101.674666 27.008 20.736 35.157333 17.877333 37.461333 16.853334 2.688-1.109333 10.581333-5.546667 15.36-39.808 4.565333-32.896 4.608-80.512 4.608-148.650667V391.936z m64 240.085333c0 66.005333 0.085333 119.04-5.248 157.44-5.12 36.906667-16.938667 74.410667-53.76 90.026667-37.205333 15.658667-72.106667-2.56-101.418667-25.088-30.421333-23.338667-67.2-61.013333-112.938666-107.648-23.04-23.466667-38.314667-34.858667-53.802667-41.258667-15.573333-6.4-34.517333-9.173333-67.498667-9.173333-20.906667 0-51.925333 1.706667-79.530666-2.901334-29.354667-4.949333-60.885333-17.749333-82.176-50.261333-11.178667-17.066667-15.616-36.010667-17.664-56.490667-2.005333-19.968-1.962667-44.8-1.962667-74.709333 0-29.909333 0-54.741333 1.962667-74.709333 2.048-20.48 6.485333-39.424 17.664-56.490667 21.290667-32.512 52.821333-45.312 82.176-50.261333 27.605333-4.650667 58.624-2.901333 79.530666-2.901334 33.024 0 51.925333-2.730667 67.498667-9.173333 15.488-6.4 30.762667-17.749333 53.76-41.258667 45.781333-46.677333 82.56-84.309333 112.981333-107.648 29.354667-22.528 64.213333-40.789333 101.376-25.045333 36.864 15.573333 48.682667 53.077333 53.802667 90.026667 5.333333 38.314667 5.248 91.392 5.248 157.44v240.085333z" fill="#2A353D" p-id="14655"></path></svg>