<svg t="1781969222181" class="icon" viewBox="0 0 1024 1024" version="1.1" xmlns="http://www.w3.org/2000/svg" p-id="1516" width="200" height="200"><path d="M565.333333 391.978667c0-68.181333-0.085333-115.797333-4.608-148.693334-4.778667-34.346667-12.714667-38.741333-15.36-39.850666-2.304-0.981333-10.453333-3.84-37.418666 16.896-25.898667 19.925333-58.88 53.461333-106.112 101.674666-25.088 25.6-47.658667 44.288-75.050667 55.637334-27.306667 11.264-56.362667 13.994667-91.861333 13.994666-30.634667 0-51.114667 0-66.773334 1.664-15.018667 1.536-21.930667 4.309333-26.538666 7.466667-12.373333 8.448-18.986667 21.205333-22.101334 40.917333-3.413333 21.333333-1.792 43.52-1.792 70.314667 0 26.752-1.578667 48.981333 1.792 70.314667 3.114667 19.712 9.728 32.469333 22.101334 40.96 4.608 3.114667 11.52 5.888 26.538666 7.424 15.658667 1.621333 36.138667 1.706667 66.773334 1.706666 35.498667 0 64.554667 2.688 91.861333 13.952 27.392 11.349333 49.92 29.994667 75.050667 55.637334 47.232 48.213333 80.213333 81.749333 106.112 101.674666 26.965333 20.693333 35.114667 17.92 37.418666 16.896 2.645333-1.109333 10.581333-5.504 15.36-39.850666 4.522667-32.896 4.608-80.512 4.608-148.650667V391.936z m64 240.085333c0 66.005333 0.085333 119.04-5.248 157.44-5.12 36.906667-16.938667 74.410667-53.76 90.026667-37.162667 15.701333-72.064-2.56-101.376-25.088-30.378667-23.338667-67.114667-61.013333-112.810666-107.648-23.04-23.466667-38.314667-34.858667-53.76-41.258667-15.530667-6.4-34.474667-9.173333-67.456-9.173333-29.269333 0-53.632 0.042667-73.344-2.005334-20.266667-2.090667-39.125333-6.698667-56.021334-18.218666-32.256-22.016-44.586667-54.229333-49.28-83.84-4.394667-27.946667-2.56-59.392-2.56-80.298667s-1.834667-52.352 2.56-80.298667c4.693333-29.610667 17.066667-61.824 49.28-83.84 16.896-11.52 35.754667-16.128 56.021334-18.218666 19.712-2.048 44.074667-2.005333 73.344-2.005334 32.981333 0 51.925333-2.730667 67.413333-9.173333 15.488-6.4 30.762667-17.749333 53.76-41.258667 45.738667-46.677333 82.474667-84.309333 112.853333-107.648 29.312-22.528 64.213333-40.789333 101.376-25.045333 36.821333 15.573333 48.64 53.077333 53.76 90.026667 5.290667 38.314667 5.248 91.392 5.248 157.44v240.085333zM736 512c0-41.386667-13.653333-79.104-36.096-108.586667a32 32 0 0 1 50.901333-38.826666A242.517333 242.517333 0 0 1 800 512c0 55.594667-18.346667 106.922667-49.194667 147.413333a32 32 0 0 1-50.901333-38.826666c22.442667-29.44 36.096-67.2 36.096-108.586667zM906.666667 512c0-72.106667-28.458667-138.752-76.928-191.701333a32 32 0 0 1 47.146666-43.264C935.168 340.650667 970.666667 422.442667 970.666667 512c0 89.6-35.498667 171.349333-93.781334 234.965333a32 32 0 0 1-47.146666-43.264C878.208 650.752 906.666667 584.106667 906.666667 512z" fill="#2A353D" p-id="1517"></path></svg>